<svg width="22" height="22" viewBox="0 0 22 22" fill="none" xmlns="http://www.w3.org/2000/svg">
<path d="M8.8002 4.95005C8.8002 4.03911 9.53926 3.30005 10.4502 3.30005H11.5502C12.4611 3.30005 13.2002 4.03911 13.2002 4.95005V17.05C13.2002 17.961 12.4611 18.7 11.5502 18.7H10.4502C9.53926 18.7 8.8002 17.961 8.8002 17.05V4.95005ZM2.2002 11.55C2.2002 10.6391 2.93926 9.90005 3.8502 9.90005H4.9502C5.86113 9.90005 6.6002 10.6391 6.6002 11.55V17.05C6.6002 17.961 5.86113 18.7 4.9502 18.7H3.8502C2.93926 18.7 2.2002 17.961 2.2002 17.05V11.55ZM17.0502 5.50005H18.1502C19.0611 5.50005 19.8002 6.23911 19.8002 7.15005V17.05C19.8002 17.961 19.0611 18.7 18.1502 18.7H17.0502C16.1393 18.7 15.4002 17.961 15.4002 17.05V7.15005C15.4002 6.23911 16.1393 5.50005 17.0502 5.50005Z" fill="currentColor"/>
</svg>
