<svg width="22" height="22" viewBox="0 0 22 22" fill="none" xmlns="http://www.w3.org/2000/svg">
<path d="M19.8002 3.84999C19.8002 3.46843 19.6043 3.11437 19.2777 2.91499C18.9511 2.71562 18.5489 2.69499 18.2086 2.86687L14.2143 4.86406L8.04738 2.80499C7.76895 2.71218 7.46988 2.73281 7.20863 2.86343L2.80863 5.06343C2.43395 5.25249 2.2002 5.63406 2.2002 6.04999V18.15C2.2002 18.5316 2.39613 18.8856 2.7227 19.085C3.04926 19.2844 3.45145 19.305 3.79176 19.1331L7.7827 17.1359L13.7399 19.1228C13.5921 18.9028 13.4477 18.6725 13.3068 18.4387C12.9286 17.8097 12.5539 17.0878 12.2755 16.3144L8.79676 15.1559V5.37624L13.1968 6.84406V10.2575C14.2624 9.02687 15.8436 8.24999 17.5968 8.24999C18.3736 8.24999 19.1161 8.40124 19.7968 8.67968L19.8002 3.84999ZM17.6002 9.89999C15.3211 9.89999 13.4752 11.715 13.4752 13.9528C13.4752 16.3212 15.6786 19.1228 16.8646 20.46C17.2633 20.9069 17.9405 20.9069 18.3393 20.46C19.5252 19.1228 21.7286 16.3212 21.7286 13.9528C21.7286 11.715 19.8827 9.89999 17.6036 9.89999H17.6002ZM16.2252 14.025C16.2252 13.2653 16.8405 12.65 17.6002 12.65C18.3599 12.65 18.9752 13.2653 18.9752 14.025C18.9752 14.7847 18.3599 15.4 17.6002 15.4C16.8405 15.4 16.2252 14.7847 16.2252 14.025Z" fill="currentColor"/>
</svg>
