<svg width="22" height="22" viewBox="0 0 22 22" fill="none" xmlns="http://www.w3.org/2000/svg">
<path d="M11.7492 2.49557C11.3264 2.10369 10.6733 2.10369 10.2539 2.49557L2.55393 9.64557C2.22393 9.95494 2.11393 10.4328 2.27893 10.8521C2.44393 11.2715 2.84612 11.5499 3.29987 11.5499H3.84987V17.5999C3.84987 18.8134 4.83643 19.7999 6.04987 19.7999H15.9499C17.1633 19.7999 18.1499 18.8134 18.1499 17.5999V11.5499H18.6999C19.1536 11.5499 19.5592 11.2715 19.7242 10.8521C19.8892 10.4328 19.7792 9.9515 19.4492 9.64557L11.7492 2.49557ZM10.4499 13.1999H11.5499C12.4608 13.1999 13.1999 13.939 13.1999 14.8499V18.1499H8.79987V14.8499C8.79987 13.939 9.53893 13.1999 10.4499 13.1999Z" fill="currentColor"/>
</svg>
