<svg width="36" height="49" viewBox="0 0 36 49" fill="none" xmlns="http://www.w3.org/2000/svg">
<path d="M0.00937486 17.6813C0.00937486 7.9125 8.07188 0 18.0094 0C27.9469 0 36.0094 7.9125 36.0094 17.6813C36.0094 28.8656 24.7406 42.2719 20.0344 47.3813C18.9281 48.5813 17.0812 48.5813 15.975 47.3813C11.2687 42.2719 0 28.8656 0 17.6813H0.00937486ZM18.0094 24C21.3188 24 24.0094 21.3094 24.0094 18C24.0094 14.6906 21.3188 12 18.0094 12C14.7 12 12.0094 14.6906 12.0094 18C12.0094 21.3094 14.7 24 18.0094 24Z" fill="#56E40A"/>
</svg>
