<svg
  width="22"
  height="22"
  viewBox="0 0 24 24"
  fill="none"
  xmlns="http://www.w3.org/2000/svg"
>
  <path
    d="M12 3.5C9.51472 3.5 7.5 5.51472 7.5 8V9.23607C7.5 10.1463 7.15445 11.0235 6.5359 11.6835L5.41924 12.8782C4.60853 13.7427 5.22553 15.1499 6.42847 15.1499H17.5715C18.7745 15.1499 19.3915 13.7427 18.5808 12.8782L17.4641 11.6835C16.8456 11.0235 16.5 10.1463 16.5 9.23607V8C16.5 5.51472 14.4853 3.5 12 3.5Z"
    stroke="currentColor"
    stroke-width="1.5"
    stroke-linecap="round"
  />
  <path
    d="M10 15.5V16C10 17.1046 10.8954 18 12 18C13.1046 18 14 17.1046 14 16V15.5"
    stroke="currentColor"
    stroke-width="1.5"
    stroke-linecap="round"
  />
</svg>

