<svg
  width="22"
  height="22"
  viewBox="0 0 24 24"
  fill="none"
  xmlns="http://www.w3.org/2000/svg"
>
  <path
    d="M12 15.5C13.933 15.5 15.5 13.933 15.5 12C15.5 10.067 13.933 8.5 12 8.5C10.067 8.5 8.5 10.067 8.5 12C8.5 13.933 10.067 15.5 12 15.5Z"
    stroke="currentColor"
    stroke-width="1.5"
  />
  <path
    d="M19.5 12C19.5 11.4696 19.4475 10.9677 19.3429 10.5L21.5 8.75L19.25 4.75L16.8 5.4C16.0259 4.76213 15.1067 4.29979 14.1031 4.06598L13.5 1H10.5L9.89691 4.06598C8.8933 4.29979 7.97406 4.76213 7.2 5.4L4.75 4.75L2.5 8.75L4.65708 10.5C4.55249 10.9677 4.5 11.4696 4.5 12C4.5 12.5304 4.55249 13.0323 4.65708 13.5L2.5 15.25L4.75 19.25L7.2 18.6C7.97406 19.2379 8.8933 19.7002 9.89691 19.934L10.5 23H13.5L14.1031 19.934C15.1067 19.7002 16.0259 19.2379 16.8 18.6L19.25 19.25L21.5 15.25L19.3429 13.5C19.4475 13.0323 19.5 12.5304 19.5 12Z"
    stroke="currentColor"
    stroke-width="1.5"
    stroke-linecap="round"
    stroke-linejoin="round"
  />
</svg>

