<svg width="22" height="22" viewBox="0 0 22 22" fill="none" xmlns="http://www.w3.org/2000/svg">
<path d="M10.9999 2.19995C11.5052 2.19995 11.9693 2.47839 12.2099 2.92183L19.6349 16.6718C19.8652 17.0981 19.8549 17.6137 19.6074 18.0296C19.3599 18.4456 18.9096 18.7 18.4249 18.7H3.57493C3.09024 18.7 2.63993 18.4456 2.39243 18.0296C2.14493 17.6137 2.13462 17.0981 2.36493 16.6718L9.78993 2.92183C10.0306 2.47839 10.4946 2.19995 10.9999 2.19995ZM10.9999 14.3C10.3915 14.3 9.89993 14.7915 9.89993 15.4C9.89993 16.0084 10.3915 16.5 10.9999 16.5C11.6084 16.5 12.0999 16.0084 12.0999 15.4C12.0999 14.7915 11.6084 14.3 10.9999 14.3ZM10.9999 7.69995C10.3743 7.69995 9.87587 8.23276 9.92055 8.85839L10.1749 12.4334C10.2059 12.8631 10.5668 13.2 10.9965 13.2C11.4296 13.2 11.7871 12.8665 11.8181 12.4334L12.0724 8.85839C12.1171 8.23276 11.6221 7.69995 10.9931 7.69995H10.9999Z" fill="currentColor"/>
</svg>
